# xmcd CD database file
#
# Track frame offsets:
#	150
#	10986
#	26124
#	40288
#	53552
#	67347
#	89495
#	102092
#	115594
#	129442
#
# Disc length: 1914 seconds
#
# Revision: 1
# Processed by: cddbd v1.5.2PL0 Copyright (c) Steve Scherf et al.
# Submitted via: CDex 1.51
#
DISCID=8207780a
DTITLE=The Vintage Gigolos - The Day After
DYEAR=2010
DGENRE=Blues
TTITLE0=Intro
TTITLE1=The Day After
TTITLE2=Fast Lane
TTITLE3=Get what you deserve
TTITLE4=Put the Lights on
TTITLE5=Life is going on
TTITLE6=Devil's Pact
TTITLE7=Burn the City down
TTITLE8=Dr. Acula
TTITLE9=You don't know me
EXTD=YEAR: 2010
EXTT0=
EXTT1=
EXTT2=
EXTT3=
EXTT4=
EXTT5=
EXTT6=
EXTT7=
EXTT8=
EXTT9=
PLAYORDER=
